<?xml version="1.0" encoding="UTF-8"?>
<svg version="1.1" viewBox="0 0 4096 1024" width="2048" height="512" xmlns="http://www.w3.org/2000/svg">
<path transform="translate(225,221)" d="m0 0h64l58 4 55 5 17 2 50 4 77 7 95 9 142 12 53 4 49 3 44 3 38 2 30 1 15 1 45 1 19 1h137l18-1 35-1 46-3 39-3 56-6 50-7 40-7 38-8h11l8 3 8 7 4 8 1 5v7l-3 9-7 8-10 5-32 7h-3l5 25 7 41 4 31 2 23 2 34v61l-3 38-4 32-7 38-8 32-11 35-10 27-9 19 7 1h36l53-7 38-7 32-8 30-10-7-11-6-9-8-17-4-13-2-10v-32l4-17 7-17 8-12 8-10 10-9 15-10 14-6 17-4h24l15 4 16 8 10 8 9 10 8 13 5 13 3 14 1 14-2 17-5 19-7 16-11 17-8 10-11 12-2 3h11l11 1 20-3 12-4 11-6 11-9 9-10 10-19 5-18 3-18v-43l-4-24-3-12v-10l4-10 7-7 9-4h15l17 8 16 11 19 14 14 11 16 13 28 24 45 45 9 11 10 12 12 17 8 15 4 11 1 6v18l-3 10-6 9-7 7-14 7-7 2h-42l-26-4-25-6-17-5-9-6-4-5-4-12 2-11 5-8 7-6 8-3 5-1 16 4 19 5 22 4 22 2 2 1-6-11-10-13-11-13-8-8-7-8-21-21-8-7-11-10-11-9-13-11-9-7-4 43-4 21-8 24-11 21-9 12-11 12-11 9-14 9-16 8-16 5-15 3h-41l-20-4-18-6-13-6-5 1-17 8-27 10-36 10-33 7-45 7-42 5h-27l-29-3-18-4-14-7-9-8-6-12v-15l4-10 8-13 11-24 11-30 9-31 7-29 5-27 4-31 2-23v-81l-3-36-3-27-6-37-6-31v-3l-8 2-64 8-54 5-41 3-38 2-71 2h-77l-24-1-56-1-67-3-72-4-87-6-111-9-164-15-31-3-15-1-5-1 14 29 52 104 12 22 14 26 14 24 12 20 16 25 13 18 12 16 14 19 10 13 11 14 12 14 9 10 14 15 10 10 4 3 9-15 3-6-3-28v-70l4-34 6-35 8-35 10-34 10-27 10-21 8-12 10-11 9-6 7-3 11-1 11 2 9 5 6 5 7 10 6 16 3 19 1 23-2 28-4 29-6 28-8 29-10 29-13 32-15 33-8 17-9 17v12l6 21 6 16 8 16 7 11 9 10 10 9 16 8 11 3h15l16-4-9-20-5-18-3-20v-20l4-25 6-20 8-17 11-16 14-14 13-8 12-5 10-2h13l15 4 11 6 10 9 7 8 8 15 5 17 1 8v25l-3 19-7 21-9 19-10 16-12 16h29l17-4 16-6 17-9 17-12 13-11 10-9 8-8 9-11 1-2-9-12-18-22-20-25-10-15-4-9-1-4v-12l3-8 7-8 8-4h16l8 4 7 8 6 12 11 14 18 22 8 10 3 3 8-15 12-29 9-25 4-6 7-6 7-3 7-1 11 3 10 9 3 5 1 5v9l-4 16-10 26-13 29-13 23-3 4 2 4 31 31 7 8 8 10 3 9-1 12-6 10-9 6-7 2h-8l-8-3-7-5-7-8-31-31-4 2-7 8-17 17-8 7-18 14-25 15-20 9-22 7-24 4h-32l-17-3-17-5-9-4-5 1-16 8-15 5-9 2-11 1h-20l-16-2-18-6-17-9-12-9-10-9-11-12-9-13-9-15-6-13v-3l-3 3-10 16-12 17-7 11-6 11-9 8-5 2h-15l-8-4-5-5-5-8-1-3v-10l4-11 6-11 14-21-42-42-9-11-8-9-11-14-8-10-6-3-16-2-18-1h-60l-6-1 1 11 1 31v15l-2 50-2 29-3 25-5 23-6 17-8 13-7 8-11 7-16 5h-15l-14-3-13-5-16-10-13-11-8-7-9-11-9-12-9-16-8-18-6-19-4-20-2-17v-17l4-26 7-21 8-15 7-9 8-9 14-11 16-9 14-6 21-6 14-3 8-1 1-1-45-18-33-15-24-12-23-13-20-12-30-20-19-14-22-18-15-14-8-7-13-14-9-11-11-14-10-15-10-17-10-25-4-16-2-14v-10l4-20 5-12 7-11 9-10 10-8 14-7 16-5zm19 51-26 3-12 3-8 4-5 5-4 8-1 13 4 17 11 23 10 15 10 13 12 14 19 19 11 9 13 11 19 14 24 16 18 11 21 12 27 14 30 14 28 11h2l-2-26-6-56-4-31-10-60-8-42-4-18-2-4-13-2-89-7-52-3zm564 151-8 25-10 40-6 33-1 7v9l2-3 7-20 7-24 6-27 4-27v-13zm-316 22m1 2v11l8 84 45 15 12 3-2-5-13-21-17-29-10-18-12-22-10-18zm289 90 1 3zm958 46-10 3-11 6-9 9-6 12-3 12v14l3 12 8 16 8 10 4 4 5-1 15-13 11-13 8-14 5-12 1-4v-21l-5-10-8-7-9-3zm-783 43-9 6-7 9-7 14-4 14-2 17v14l3 15 5 12 5-5 7-8 11-18 8-18 4-17v-16l-3-10-4-7-3-2zm-508 4-21 4-17 6-13 7-10 9-6 9-5 12-2 10-1 10v15l3 19 5 17 7 16 10 15 11 12 11 9 16 8 3-1 5-13 4-22 2-16 2-28v-98z" fill="#FEFEFE"/>
<path transform="translate(3321,327)" d="m0 0 9 1 8 4 6 5 5 10 3 23 5 79 6 75 1 6 16-2h11l18 2 7 1 2-4 16-24 10-19 6-17 4-17v-20l3-9 6-7 10-5h15l8 4 8 9 3 10 1 6v11l-3 20-6 21-8 20-10 19-11 17-3 5 6 2 19 13 10 8 13 11 26 26 9 11 13 16 9 13 2-7 2-22 1-19 4-25 4-12 9-10 7-4 3-1h11l11 4 10 8 6 5 9 11 13 17 18 27 13 21 12 22 13 24 16 27 14 23 18 27 2 7v8l-3 9-7 8-8 4-3 1h-11l-9-4-7-6-20-30-17-28-16-28-13-24-10-18-14-22-3-4-1 2-7 63-4 23-4 13-6 9-7 6-4 2-11 1-10-2-6-4-7-9-14-29-13-23-10-15-12-16-13-15-8-8-7-8-10-9-13-11-17-11-14-7-6-1-21 11-15 6-18 5 4 37 7 49 8 41 6 23 4 13v10l-4 10-8 8-5 2-6 1h-8l-9-3-7-6-6-12-8-28-8-40-6-37-6-48-4-40-2-22-1-6-10 30-12 30-10 21 1 4 9 15 8 16 6 18 2 14v10l-3 15-4 9-6 9-5 6-14 10-14 6-17 4h-27l-17-4-17-7-15-9-11-9-9-9-6-9-2-6v-9l3-9 8-9 9-4 8-1 10 3 6 4 10 11 13 8 13 5h22l10-5 1-2v-14l-12-25-14-19-9-10-8-10-11-13-8-10-39-39-10-8-2-1-14 29-9 13-23 23-8 6 1 8v35l-3 15-5 14-7 13-10 12-12 9-12 6-11 3h-34l-15-4-17-7-15-9-12-9-13-11-9-9-5 11-6 12-12 16-8 7-10 6-13 5h-27l-10-3-14-7-10-8-10-9-10-11-11-15-2-5-4 4-9 12-7 7-4 5-8 7-13 10-13 8-16 8-21 7-18 3-8 1h-17l-20-3-18-6-14-7-11-8-11-9-5-4-8 8-14 10-14 7-14 4h-32l-15-4-16-8-13-9-10-9-8-8-13-17-11-18-11-22-3 8-10 30-8 19-10 18-8 10-6 7-10 7-9 4h-21l-10-5-8-8-7-12-6-19-8-41-9-45-7-27-7-20-8-16-7-8-6 2-9 10-12 17-10 18-9 19-7 21-4 13-6 10-9 6-2 1h-16l-10-5-6-8-3-10-1-4-3-31-5-44-5-45-3-20v-13l3-8 7-8 8-4 3-1h9l9 3 9 8 4 10 4 26 3 24v5h2l2-5 11-14 7-8 12-9 14-7 12-3h12l15 4 12 7 10 9 9 11 10 18 9 23 7 24 8 34 9 48 1 2 6-15 9-28 7-29 6-36 2-18 1-23 3-15 6-9 9-6 4-1h11l10 4 7 7 3 6 6 38 7 27 9 25 13 30 9 17 12 17 14 14 12 7 12 3 8-1 9-3 12-9 9-11 2-4-3-11-2-15-2-22v-11l3-21 5-20 7-18 8-15 9-12 11-12 11-9 14-8 15-5 11-2h12l14 3 12 5 11 8 8 8 8 14 4 13 1 15-2 16-5 14-6 11-7 9-8 9-10 8-15 9-19 9-25 8-9 2 2 9 8 16 7 9 10 9 15 8 12 3h22l17-4 16-7 15-10 13-12 9-11 8-13 7-16v-9l-7-27-5-29-2-22v-18l2-14 4-10 4-6 8-7 11-4 10 1 8 4 7 7 8 16 6 20 4 20 2 21v25l-2 23 9 19 11 18 12 16 6 7 11 8 9 1 5-4 8-15 5-17 3-17 1-8v-18l-5-15-4-20v-25l5-12 7-7 10-4h9l9 3 8 6 5 7 4 13 4 21 2 22 4 11 9 17 9 14 9 10 10 10 16 11 12 6 5 2 9 2h9l9-4 4-5 5-12 1-21-1-14-4-17-8-22-12-24-12-18-5-8-2-6v-8l3-9 9-10 7-3h15l8 4 9 9 11 17 10 18 6 12v2l5-4 7-10 11-23 7-21 4-13 7-8 6-4 3-1h16l10 4 11 7 14 12 13 11 14 12 35 35 9 11 3 4 4-8 10-27 10-31 5-19 8-41 9-54 6-46 3-25 4-9 8-8 7-3zm-713 237-9 3-12 9-8 11-8 16-4 12 1 3 18-6 19-10 10-9 6-10 1-10-2-6-6-3z" fill="#FEFEFE"/>
<path transform="translate(1933,355)" d="m0 0h13l10 5 6 7 3 7v14l-5 10-8 10-15 25-16 27-5 6-10 5-4 1h-8l-9-3-7-6-5-9-1-11 3-10 15-26 15-25 8-11 6-8 8-6z" fill="#FEFEFE"/>
<path transform="translate(3609,455)" d="m0 0h11l9 3 7 6 5 10v14l-5 10-7 6-9 3h-11l-8-3-5-4-6-10-1-3v-11l3-8 8-9z" fill="#FDFDFD"/>
<path transform="translate(2380,394)" d="m0 0h11l10 5 7 7 3 9v10l-3 9-6 7-10 5h-14l-8-4-5-4-4-6-2-6v-11l4-10 7-7z" fill="#fff"/>
</svg>
